<svg width="273" height="273" viewBox="0 0 273 273" fill="none" xmlns="http://www.w3.org/2000/svg">
<path d="M109.397 15.7707C121.257 -5.25677 151.54 -5.25677 163.4 15.7707L192.918 68.1066C195.696 73.0305 199.766 77.1012 204.69 79.8784L257.026 109.397C278.054 121.257 278.054 151.54 257.026 163.4L204.69 192.918C199.766 195.696 195.696 199.766 192.918 204.69L163.4 257.026C151.54 278.054 121.257 278.054 109.397 257.026L79.8784 204.69C77.1012 199.766 73.0305 195.696 68.1066 192.918L15.7707 163.4C-5.25677 151.54 -5.25677 121.257 15.7707 109.397L68.1066 79.8784C73.0305 77.1012 77.1012 73.0305 79.8784 68.1066L109.397 15.7707Z" fill="currentColor"/>
</svg>
